<svg xmlns="http://www.w3.org/2000/svg" version="1.1" xmlns:xlink="http://www.w3.org/1999/xlink" xmlns:svgjs="http://svgjs.dev/svgjs" width="2000" height="1247" viewBox="0 0 2000 1247"><g transform="matrix(1,0,0,1,-1.2121212121212466,0.504858299595071)"><svg viewBox="0 0 396 247" data-background-color="#ffffff" preserveAspectRatio="xMidYMid meet" height="1247" width="2000" xmlns="http://www.w3.org/2000/svg" xmlns:xlink="http://www.w3.org/1999/xlink"><g id="tight-bounds" transform="matrix(1,0,0,1,0.2400000000000091,-0.09999999999999432)"><svg viewBox="0 0 395.52 247.2" height="247.2" width="395.52"><g><svg></svg></g><g><svg viewBox="0 0 395.52 247.2" height="247.2" width="395.52"><g transform="matrix(1,0,0,1,75.54432,54.62092853185595)"><svg viewBox="0 0 244.43135999999998 137.95814293628808" height="137.95814293628808" width="244.43135999999998"><g><svg viewBox="0 0 244.43135999999998 137.95814293628808" height="137.95814293628808" width="244.43135999999998"><g><svg viewBox="0 0 244.43135999999998 137.95814293628808" height="137.95814293628808" width="244.43135999999998"><g><svg viewBox="0 0 244.43135999999998 137.95814293628808" height="137.95814293628808" width="244.43135999999998"><g id="textblocktransform"><svg viewBox="0 0 244.43135999999998 137.95814293628808" height="137.95814293628808" width="244.43135999999998" id="textblock"><g><svg viewBox="0 0 244.43135999999998 137.95814293628808" height="137.95814293628808" width="244.43135999999998"><g transform="matrix(1,0,0,1,0,0)"><svg width="244.43135999999998" viewBox="2.5 -40.2 72.2 40.75000000000001" height="137.95814293628808" data-palette-color="#000000"><path d="M28.2-21.15Q32.05-20.05 34.25-17.45 36.45-14.85 36.45-11.45L36.45-11.45Q36.45-8.3 33.93-5.53 31.4-2.75 27.63-1.1 23.85 0.55 20.45 0.55L20.45 0.55Q17.95 0.55 15.55 0.3L15.55 0.3Q11.55 0.05 9.35 0.05L9.35 0.05 3 0.05 3-1.5 7.7-5.2 7.7-35.6 2.5-37.3 3.5-39.3 9.3-39.3Q13.85-39.3 18.25-39.6L18.25-39.6Q21.65-39.8 23.25-39.8L23.25-39.8Q26.6-39.8 29.15-38.5 31.7-37.2 33.08-34.98 34.45-32.75 34.45-30L34.45-30Q34.45-27.5 32.73-25.23 31-22.95 28.2-21.25L28.2-21.25 28.2-21.15ZM27.7-27.5Q27.7-31.45 25.6-33.95 23.5-36.45 19.35-36.45L19.35-36.45Q16.35-36.45 13.95-34.75L13.95-34.75 13.95-21.5 21.1-21.5Q24.2-21.5 25.95-23.08 27.7-24.65 27.7-27.55L27.7-27.55 27.7-27.5ZM21.85-3.1Q25.45-3.1 27.58-4.9 29.7-6.7 29.7-9.75L29.7-9.75Q29.7-13.65 27.43-16.05 25.15-18.45 20.65-18.6L20.65-18.6Q20.3-18.55 19.7-18.55L19.7-18.55 13.95-18.55 13.95-4.4Q17.3-3.05 21.85-3.05L21.85-3.05 21.85-3.1ZM74.7-40.2L74.7-28.7 73.2-28.2 67.25-37.05 53.45-37.05 53.45-21.2 61.3-21.2 64.95-27.6 66.5-27.6 66.5-13.9 64.5-12.9 61.45-18.95 53.4-18.95 53.4-4.15 61.15-2 60.15 0 42.45 0 42.45-1.55 47.15-5.25 47.15-35.55 41.95-37.3 42.95-39.3 71.95-39.3 74.7-40.2Z" opacity="1" transform="matrix(1,0,0,1,0,0)" fill="#000000" class="wordmark-text-0" data-fill-palette-color="primary" id="text-0"></path></svg></g></svg></g></svg></g></svg></g></svg></g></svg></g></svg></g><path d="M250.196 48.621L250.196 3.959 10.914 3.959 10.914 243.241 250.196 243.241 250.196 198.579 237.755 198.579 237.755 230.8 23.355 230.8 23.355 16.4 237.755 16.4 237.755 48.621Z" fill="#000000" stroke="transparent" data-fill-palette-color="primary"></path></svg></g><defs></defs></svg><rect width="395.52" height="247.2" fill="none" stroke="none" visibility="hidden"></rect></g></svg></g></svg>